<svg version="1.1" viewBox="0.0 0.0 202.33333333333334 219.0288713910761" fill="none" stroke="none" stroke-linecap="square" stroke-miterlimit="10" xmlns:xlink="http://www.w3.org/1999/xlink" xmlns="http://www.w3.org/2000/svg"><clipPath id="p.0"><path d="m0 0l202.33333 0l0 219.02887l-202.33333 0l0 -219.02887z" clip-rule="nonzero"/></clipPath><g clip-path="url(#p.0)"><path fill="#000000" fill-opacity="0.0" d="m0 0l202.33333 0l0 219.02887l-202.33333 0z" fill-rule="evenodd"/><path fill="#000000" fill-opacity="0.0" d="m100.519684 4.727034l94.488144 47.244095l0 113.38582l-94.488144 47.244095l-94.488144 -47.244095l0 -113.38582z" fill-rule="evenodd"/><path stroke="#0b5394" stroke-width="8.0" stroke-linejoin="round" stroke-linecap="butt" d="m100.519684 4.727034l94.488144 47.244095l0 113.38582l-94.488144 47.244095l-94.488144 -47.244095l0 -113.38582z" fill-rule="evenodd"/><path fill="#000000" fill-opacity="0.0" d="m195.00783 51.97113l-188.97638 113.38582" fill-rule="evenodd"/><path stroke="#0b5394" stroke-width="8.0" stroke-linejoin="round" stroke-linecap="butt" d="m195.00783 51.97113l-188.97638 113.38582" fill-rule="evenodd"/><path fill="#000000" fill-opacity="0.0" d="m47.02362 31.748032l97.82677 50.425194" fill-rule="evenodd"/><path stroke="#0b5394" stroke-width="8.0" stroke-linejoin="round" stroke-linecap="butt" d="m47.02362 31.748032l97.82677 50.425194" fill-rule="evenodd"/><path fill="#000000" fill-opacity="0.0" d="m54.02362 136.24934l97.82677 50.4252" fill-rule="evenodd"/><path stroke="#0b5394" stroke-width="8.0" stroke-linejoin="round" stroke-linecap="butt" d="m54.02362 136.24934l97.82677 50.4252" fill-rule="evenodd"/></g></svg>